<mxfile host="65bd71144e">
    <diagram id="ehvUv0xJiv6CY3YclSAE" name="Arquitetura em Camadas">
        <mxGraphModel dx="799" dy="677" grid="1" gridSize="10" guides="1" tooltips="1" connect="1" arrows="1" fold="1" page="1" pageScale="1" pageWidth="850" pageHeight="1100" math="0" shadow="0">
            <root>
                <mxCell id="0"/>
                <mxCell id="1" parent="0"/>
                <mxCell id="2" value="ecommerce-node-api (Back-End)" style="verticalAlign=top;align=left;spacingTop=8;spacingLeft=2;spacingRight=12;shape=cube;size=10;direction=south;fontStyle=5;html=1;strokeWidth=2;strokeColor=default;fillColor=#f5f5f5;gradientColor=#b3b3b3;fontColor=#191616;" parent="1" vertex="1">
                    <mxGeometry x="120" y="340" width="630" height="420" as="geometry"/>
                </mxCell>
                <mxCell id="3" value="ecommerce-web-app(Front-End)" style="verticalAlign=top;align=left;spacingTop=8;spacingLeft=2;spacingRight=12;shape=cube;size=10;direction=south;fontStyle=5;html=1;strokeWidth=2;strokeColor=#fefbfb;fillColor=#f5f5f5;gradientColor=#b3b3b3;fontColor=#191616;" parent="1" vertex="1">
                    <mxGeometry x="155" y="210" width="540" height="100" as="geometry"/>
                </mxCell>
                <mxCell id="4" value="" style="strokeWidth=2;html=1;shape=mxgraph.flowchart.database;whiteSpace=wrap;strokeColor=#f4f0f0;fillColor=#f5f5f5;gradientColor=#b3b3b3;" parent="1" vertex="1">
                    <mxGeometry x="185" y="780" width="480" height="100" as="geometry"/>
                </mxCell>
                <mxCell id="5" value="Database (Relacional)" style="text;html=1;strokeColor=none;fillColor=none;align=center;verticalAlign=middle;whiteSpace=wrap;rounded=0;strokeWidth=2;fontColor=#191616;fontStyle=1" parent="1" vertex="1">
                    <mxGeometry x="295" y="820" width="260" height="50" as="geometry"/>
                </mxCell>
                <mxCell id="7" value="" style="rounded=1;whiteSpace=wrap;html=1;strokeColor=#373434;strokeWidth=2;fontColor=#191616;fillColor=#ec656e;" parent="1" vertex="1">
                    <mxGeometry x="300" y="580" width="440" height="60" as="geometry"/>
                </mxCell>
                <mxCell id="9" value="Camada de Domínio" style="text;html=1;strokeColor=none;fillColor=none;align=center;verticalAlign=middle;whiteSpace=wrap;rounded=0;strokeWidth=2;fontColor=#191616;fontStyle=1" parent="1" vertex="1">
                    <mxGeometry x="295" y="595" width="130" height="30" as="geometry"/>
                </mxCell>
                <mxCell id="11" value="" style="rounded=1;whiteSpace=wrap;html=1;strokeColor=#373434;strokeWidth=2;fontColor=#191616;fillColor=#3399FF;arcSize=21;points=[[0,0,0,0,0],[0,0.25,0,0,0],[0,0.5,0,0,0],[0,0.75,0,0,0],[0,1,0,0,0],[0.05,0.95,0,0,0],[0.13,0.95,0,0,0],[0.25,0,0,0,0],[0.5,0,0,0,0],[0.75,0,0,0,0],[0.75,1,0,0,0],[1,0,0,0,0],[1,0.25,0,0,0],[1,0.5,0,0,0],[1,0.75,0,0,0],[1,1,0,0,0]];" parent="1" vertex="1">
                    <mxGeometry x="140" y="390" width="600" height="60" as="geometry"/>
                </mxCell>
                <mxCell id="12" value="Camada de Apresentação" style="text;html=1;strokeColor=none;fillColor=none;align=center;verticalAlign=middle;whiteSpace=wrap;rounded=0;strokeWidth=2;fontColor=#191616;fontStyle=1" parent="1" vertex="1">
                    <mxGeometry x="140" y="405" width="160" height="30" as="geometry"/>
                </mxCell>
                <mxCell id="14" value="" style="rounded=1;whiteSpace=wrap;html=1;strokeColor=#373434;strokeWidth=2;fontColor=#191616;fillColor=#FF66FF;" parent="1" vertex="1">
                    <mxGeometry x="200" y="250" width="450" height="40" as="geometry"/>
                </mxCell>
                <mxCell id="15" value="Interface de Usuário" style="text;html=1;strokeColor=none;fillColor=none;align=center;verticalAlign=middle;whiteSpace=wrap;rounded=0;strokeWidth=2;fontColor=#191616;fontStyle=1" parent="1" vertex="1">
                    <mxGeometry x="185" y="255" width="160" height="30" as="geometry"/>
                </mxCell>
                <mxCell id="46" style="edgeStyle=none;html=1;exitX=0.1;exitY=1;exitDx=0;exitDy=0;exitPerimeter=0;dashed=1;strokeColor=#191616;strokeWidth=2;fontColor=#191616;endArrow=classic;endFill=1;" parent="1" source="16" edge="1">
                    <mxGeometry relative="1" as="geometry">
                        <mxPoint x="344" y="580" as="targetPoint"/>
                    </mxGeometry>
                </mxCell>
                <mxCell id="16" value="" style="rounded=1;whiteSpace=wrap;html=1;strokeColor=#373434;strokeWidth=2;fontColor=#191616;fillColor=#FFFF66;points=[[0,0,0,0,0],[0,0.25,0,0,0],[0,0.5,0,0,0],[0,0.75,0,0,0],[0,1,0,0,0],[0.1,1,0,0,0],[0.25,0,0,0,0],[0.5,0,0,0,0],[0.5,1,0,0,0],[0.75,0,0,0,0],[0.75,1,0,0,0],[1,0,0,0,0],[1,0.25,0,0,0],[1,0.5,0,0,0],[1,0.75,0,0,0],[1,1,0,0,0]];" parent="1" vertex="1">
                    <mxGeometry x="300" y="470" width="440" height="60" as="geometry"/>
                </mxCell>
                <mxCell id="17" value="Camada de Aplicação" style="text;html=1;strokeColor=none;fillColor=none;align=center;verticalAlign=middle;whiteSpace=wrap;rounded=0;strokeWidth=2;fontColor=#191616;fontStyle=1" parent="1" vertex="1">
                    <mxGeometry x="300" y="485" width="130" height="30" as="geometry"/>
                </mxCell>
                <mxCell id="47" style="edgeStyle=none;html=1;exitX=0.07;exitY=0;exitDx=0;exitDy=0;exitPerimeter=0;entryX=0;entryY=0.75;entryDx=0;entryDy=0;entryPerimeter=0;dashed=1;strokeColor=#191616;strokeWidth=2;fontColor=#191616;endArrow=classic;endFill=1;" parent="1" source="26" target="16" edge="1">
                    <mxGeometry relative="1" as="geometry">
                        <Array as="points">
                            <mxPoint x="180" y="515"/>
                        </Array>
                    </mxGeometry>
                </mxCell>
                <mxCell id="48" style="edgeStyle=none;html=1;entryX=0;entryY=1;entryDx=0;entryDy=0;dashed=1;strokeColor=#191616;strokeWidth=2;fontColor=#191616;endArrow=classic;endFill=1;" parent="1" target="28" edge="1">
                    <mxGeometry relative="1" as="geometry">
                        <mxPoint x="305" y="682" as="sourcePoint"/>
                    </mxGeometry>
                </mxCell>
                <mxCell id="26" value="" style="rounded=1;whiteSpace=wrap;html=1;strokeColor=#373434;strokeWidth=2;fontColor=#191616;fillColor=#99FF99;points=[[0,0,0,0,0],[0,0.25,0,0,0],[0,0.5,0,0,0],[0,0.75,0,0,0],[0,1,0,0,0],[0.07,0,0,0,0],[0.25,1,0,0,0],[0.26,0,0,0,-3],[0.5,1,0,0,0],[0.75,0,0,0,0],[0.75,1,0,0,0],[1,0,0,0,0],[1,0.25,0,0,0],[1,0.5,0,0,0],[1,0.75,0,0,0],[1,1,0,0,0]];" parent="1" vertex="1">
                    <mxGeometry x="140" y="680" width="600" height="60" as="geometry"/>
                </mxCell>
                <mxCell id="27" value="Camada de Infraestrutura" style="text;html=1;strokeColor=none;fillColor=none;align=center;verticalAlign=middle;whiteSpace=wrap;rounded=0;strokeWidth=2;fontColor=#191616;fontStyle=1" parent="1" vertex="1">
                    <mxGeometry x="155" y="690" width="160" height="30" as="geometry"/>
                </mxCell>
                <mxCell id="28" value="Mais&amp;nbsp; Abstrata" style="text;html=1;strokeColor=none;fillColor=none;align=center;verticalAlign=middle;whiteSpace=wrap;rounded=0;strokeWidth=2;fontColor=#191616;" parent="1" vertex="1">
                    <mxGeometry x="305" y="610" width="90" height="30" as="geometry"/>
                </mxCell>
                <mxCell id="30" value="Menos Abstrata" style="text;html=1;strokeColor=none;fillColor=none;align=center;verticalAlign=middle;whiteSpace=wrap;rounded=0;strokeWidth=2;fontColor=#191616;" parent="1" vertex="1">
                    <mxGeometry x="160" y="710" width="90" height="30" as="geometry"/>
                </mxCell>
                <mxCell id="44" style="edgeStyle=none;html=1;exitX=0.25;exitY=1;exitDx=0;exitDy=0;fontColor=#191616;strokeColor=#191616;endArrow=classic;endFill=1;strokeWidth=2;dashed=1;entryX=0;entryY=0.5;entryDx=0;entryDy=0;entryPerimeter=0;" parent="1" source="32" target="16" edge="1">
                    <mxGeometry relative="1" as="geometry">
                        <mxPoint x="300" y="495" as="targetPoint"/>
                        <Array as="points">
                            <mxPoint x="173" y="500"/>
                        </Array>
                    </mxGeometry>
                </mxCell>
                <mxCell id="45" style="edgeStyle=none;html=1;exitX=0;exitY=1;exitDx=0;exitDy=0;entryX=0;entryY=0.5;entryDx=0;entryDy=0;dashed=1;strokeColor=#191616;strokeWidth=2;fontColor=#191616;endArrow=classic;endFill=1;" parent="1" source="32" target="9" edge="1">
                    <mxGeometry relative="1" as="geometry">
                        <Array as="points">
                            <mxPoint x="150" y="610"/>
                        </Array>
                    </mxGeometry>
                </mxCell>
                <mxCell id="32" value="Menos Abstrata" style="text;html=1;strokeColor=none;fillColor=none;align=center;verticalAlign=middle;whiteSpace=wrap;rounded=0;strokeWidth=2;fontColor=#191616;" parent="1" vertex="1">
                    <mxGeometry x="150" y="420" width="90" height="30" as="geometry"/>
                </mxCell>
                <mxCell id="54" value="" style="curved=1;endArrow=classic;html=1;strokeColor=#3333FF;strokeWidth=2;fontColor=#191616;entryX=0;entryY=0;entryDx=0;entryDy=310;entryPerimeter=0;" parent="1" target="2" edge="1">
                    <mxGeometry width="50" height="50" relative="1" as="geometry">
                        <mxPoint x="500" y="350" as="sourcePoint"/>
                        <mxPoint x="450" y="520" as="targetPoint"/>
                        <Array as="points">
                            <mxPoint x="510" y="540"/>
                            <mxPoint x="500" y="870"/>
                        </Array>
                    </mxGeometry>
                </mxCell>
            </root>
        </mxGraphModel>
    </diagram>
    <diagram name="Arquitetura Hexagonal" id="RaXjF2fW67_FS4LBotdt">
        <mxGraphModel dx="658" dy="558" grid="1" gridSize="10" guides="1" tooltips="1" connect="1" arrows="1" fold="1" page="1" pageScale="1" pageWidth="850" pageHeight="1100" math="0" shadow="0">
            <root>
                <mxCell id="YTZjs5NrMnTZmiXK4MOZ-0"/>
                <mxCell id="YTZjs5NrMnTZmiXK4MOZ-1" parent="YTZjs5NrMnTZmiXK4MOZ-0"/>
                <mxCell id="YTZjs5NrMnTZmiXK4MOZ-2" value="ecommerce-node-api (Back-End)" style="verticalAlign=top;align=left;spacingTop=8;spacingLeft=2;spacingRight=12;shape=cube;size=10;direction=south;fontStyle=5;html=1;strokeWidth=2;strokeColor=default;fillColor=#f5f5f5;gradientColor=#b3b3b3;fontColor=#191616;" parent="YTZjs5NrMnTZmiXK4MOZ-1" vertex="1">
                    <mxGeometry x="80" y="330" width="710" height="440" as="geometry"/>
                </mxCell>
                <mxCell id="YTZjs5NrMnTZmiXK4MOZ-3" value="ecommerce-web-app(Front-End)" style="verticalAlign=top;align=left;spacingTop=8;spacingLeft=2;spacingRight=12;shape=cube;size=10;direction=south;fontStyle=5;html=1;strokeWidth=2;strokeColor=#fefbfb;fillColor=#f5f5f5;gradientColor=#b3b3b3;fontColor=#191616;" parent="YTZjs5NrMnTZmiXK4MOZ-1" vertex="1">
                    <mxGeometry x="155" y="210" width="540" height="100" as="geometry"/>
                </mxCell>
                <mxCell id="YTZjs5NrMnTZmiXK4MOZ-4" value="" style="strokeWidth=2;html=1;shape=mxgraph.flowchart.database;whiteSpace=wrap;strokeColor=#f4f0f0;fillColor=#f5f5f5;gradientColor=#b3b3b3;" parent="YTZjs5NrMnTZmiXK4MOZ-1" vertex="1">
                    <mxGeometry x="290" y="780" width="270" height="100" as="geometry"/>
                </mxCell>
                <mxCell id="YTZjs5NrMnTZmiXK4MOZ-5" value="Database (Relacional)" style="text;html=1;strokeColor=none;fillColor=none;align=center;verticalAlign=middle;whiteSpace=wrap;rounded=0;strokeWidth=2;fontColor=#191616;fontStyle=1" parent="YTZjs5NrMnTZmiXK4MOZ-1" vertex="1">
                    <mxGeometry x="295" y="820" width="260" height="50" as="geometry"/>
                </mxCell>
                <mxCell id="YTZjs5NrMnTZmiXK4MOZ-10" value="" style="rounded=1;whiteSpace=wrap;html=1;strokeColor=#373434;strokeWidth=2;fontColor=#191616;fillColor=#FF66FF;" parent="YTZjs5NrMnTZmiXK4MOZ-1" vertex="1">
                    <mxGeometry x="200" y="250" width="450" height="40" as="geometry"/>
                </mxCell>
                <mxCell id="YTZjs5NrMnTZmiXK4MOZ-11" value="Interface de Usuário" style="text;html=1;strokeColor=none;fillColor=none;align=center;verticalAlign=middle;whiteSpace=wrap;rounded=0;strokeWidth=2;fontColor=#191616;fontStyle=1" parent="YTZjs5NrMnTZmiXK4MOZ-1" vertex="1">
                    <mxGeometry x="185" y="255" width="160" height="30" as="geometry"/>
                </mxCell>
                <mxCell id="RFnJm8jsPnlHxxEmqQ-q-18" value="" style="shape=hexagon;perimeter=hexagonPerimeter2;whiteSpace=wrap;html=1;fixedSize=1;fillColor=#3399FF;size=90;gradientColor=#99FF99;strokeColor=#000000;" parent="YTZjs5NrMnTZmiXK4MOZ-1" vertex="1">
                    <mxGeometry x="130" y="390" width="610" height="350" as="geometry"/>
                </mxCell>
                <mxCell id="RFnJm8jsPnlHxxEmqQ-q-15" value="" style="shape=hexagon;perimeter=hexagonPerimeter2;whiteSpace=wrap;html=1;fixedSize=1;fontColor=#000000;fillColor=#FFFF66;size=80;dashed=1;strokeColor=#000000;" parent="YTZjs5NrMnTZmiXK4MOZ-1" vertex="1">
                    <mxGeometry x="220" y="440" width="430" height="260" as="geometry"/>
                </mxCell>
                <mxCell id="RFnJm8jsPnlHxxEmqQ-q-14" value="" style="shape=hexagon;perimeter=hexagonPerimeter2;whiteSpace=wrap;html=1;fixedSize=1;fontColor=#000000;fillColor=#DE4B55;size=50;strokeColor=#000000;" parent="YTZjs5NrMnTZmiXK4MOZ-1" vertex="1">
                    <mxGeometry x="310" y="490" width="250" height="150" as="geometry"/>
                </mxCell>
                <mxCell id="RFnJm8jsPnlHxxEmqQ-q-3" value="Camada de Domínio" style="text;html=1;strokeColor=none;fillColor=none;align=center;verticalAlign=middle;whiteSpace=wrap;rounded=0;fontColor=#000000;fontStyle=1" parent="YTZjs5NrMnTZmiXK4MOZ-1" vertex="1">
                    <mxGeometry x="317" y="535" width="143" height="30" as="geometry"/>
                </mxCell>
                <mxCell id="RFnJm8jsPnlHxxEmqQ-q-17" value="Camada de Aplicação" style="text;html=1;strokeColor=none;fillColor=none;align=center;verticalAlign=middle;whiteSpace=wrap;rounded=0;fontColor=#000000;fontStyle=1" parent="YTZjs5NrMnTZmiXK4MOZ-1" vertex="1">
                    <mxGeometry x="295" y="435" width="130" height="30" as="geometry"/>
                </mxCell>
                <mxCell id="2xJkToKy9jdSefRMmRuw-0" value="Camada de Apresentação" style="text;html=1;strokeColor=none;fillColor=none;align=center;verticalAlign=middle;whiteSpace=wrap;rounded=0;fontColor=#000000;fontStyle=1" parent="YTZjs5NrMnTZmiXK4MOZ-1" vertex="1">
                    <mxGeometry x="213" y="385" width="160" height="30" as="geometry"/>
                </mxCell>
                <mxCell id="5fp1VOLm5tqqU_mOXNkA-1" value="Camada de Infraestrutura" style="text;html=1;strokeColor=none;fillColor=none;align=center;verticalAlign=middle;whiteSpace=wrap;rounded=0;fontColor=#000000;fontStyle=1" parent="YTZjs5NrMnTZmiXK4MOZ-1" vertex="1">
                    <mxGeometry x="220" y="700" width="160" height="30" as="geometry"/>
                </mxCell>
                <mxCell id="zr8VyB91ws4Afk8rxflp-3" style="edgeStyle=none;html=1;exitX=0.5;exitY=0;exitDx=0;exitDy=0;dashed=1;strokeColor=#1E0005;fontColor=#000000;" parent="YTZjs5NrMnTZmiXK4MOZ-1" source="RFnJm8jsPnlHxxEmqQ-q-18" target="RFnJm8jsPnlHxxEmqQ-q-15" edge="1">
                    <mxGeometry relative="1" as="geometry"/>
                </mxCell>
                <mxCell id="zr8VyB91ws4Afk8rxflp-6" style="edgeStyle=none;html=1;exitX=0.5;exitY=0;exitDx=0;exitDy=0;dashed=1;strokeColor=#1E0005;fontColor=#000000;" parent="YTZjs5NrMnTZmiXK4MOZ-1" source="RFnJm8jsPnlHxxEmqQ-q-15" target="RFnJm8jsPnlHxxEmqQ-q-14" edge="1">
                    <mxGeometry relative="1" as="geometry"/>
                </mxCell>
                <mxCell id="zr8VyB91ws4Afk8rxflp-10" style="edgeStyle=none;html=1;exitX=0.5;exitY=1;exitDx=0;exitDy=0;entryX=0.5;entryY=1;entryDx=0;entryDy=0;dashed=1;strokeColor=#1E0005;fontColor=#000000;" parent="YTZjs5NrMnTZmiXK4MOZ-1" source="RFnJm8jsPnlHxxEmqQ-q-18" target="RFnJm8jsPnlHxxEmqQ-q-15" edge="1">
                    <mxGeometry relative="1" as="geometry"/>
                </mxCell>
                <mxCell id="zr8VyB91ws4Afk8rxflp-11" style="edgeStyle=none;html=1;exitX=0.5;exitY=1;exitDx=0;exitDy=0;dashed=1;strokeColor=#1E0005;fontColor=#000000;" parent="YTZjs5NrMnTZmiXK4MOZ-1" source="RFnJm8jsPnlHxxEmqQ-q-15" target="RFnJm8jsPnlHxxEmqQ-q-14" edge="1">
                    <mxGeometry relative="1" as="geometry"/>
                </mxCell>
                <mxCell id="RAjoPM_-fUuvctOwuihy-0" value="Baixo Nivel de Abstração / Detalhes" style="text;html=1;strokeColor=none;fillColor=none;align=center;verticalAlign=middle;whiteSpace=wrap;rounded=0;fontColor=#000000;" vertex="1" parent="YTZjs5NrMnTZmiXK4MOZ-1">
                    <mxGeometry x="204" y="399" width="210" height="30" as="geometry"/>
                </mxCell>
                <mxCell id="RAjoPM_-fUuvctOwuihy-1" value="Médio Nivel de Abstração&amp;nbsp;&lt;br&gt;Orquestração" style="text;html=1;strokeColor=none;fillColor=none;align=center;verticalAlign=middle;whiteSpace=wrap;rounded=0;fontColor=#000000;" vertex="1" parent="YTZjs5NrMnTZmiXK4MOZ-1">
                    <mxGeometry x="257" y="456" width="210" height="30" as="geometry"/>
                </mxCell>
                <mxCell id="RAjoPM_-fUuvctOwuihy-2" value="Alto Nivél de Abstração / Políticas" style="text;html=1;strokeColor=none;fillColor=none;align=center;verticalAlign=middle;whiteSpace=wrap;rounded=0;fontColor=#000000;" vertex="1" parent="YTZjs5NrMnTZmiXK4MOZ-1">
                    <mxGeometry x="310" y="550" width="210" height="30" as="geometry"/>
                </mxCell>
                <mxCell id="RAjoPM_-fUuvctOwuihy-3" value="Baixo Nível de Abstração / Detalhes" style="text;html=1;strokeColor=none;fillColor=none;align=center;verticalAlign=middle;whiteSpace=wrap;rounded=0;fontColor=#000000;" vertex="1" parent="YTZjs5NrMnTZmiXK4MOZ-1">
                    <mxGeometry x="213" y="715" width="210" height="30" as="geometry"/>
                </mxCell>
                <mxCell id="RrZaUmODnF5VA7f9-7iU-0" value="" style="rounded=1;whiteSpace=wrap;html=1;strokeColor=#373434;strokeWidth=2;fontColor=#191616;fillColor=#ec656e;" vertex="1" parent="YTZjs5NrMnTZmiXK4MOZ-1">
                    <mxGeometry x="245" y="980" width="380" height="60" as="geometry"/>
                </mxCell>
                <mxCell id="ZYpkKoAxzcQD_2I4ECs_-0" value="" style="rounded=1;whiteSpace=wrap;html=1;strokeColor=#373434;strokeWidth=2;fontColor=#191616;fillColor=#FFFF66;points=[[0,0,0,0,0],[0,0.25,0,0,0],[0,0.5,0,0,0],[0,0.75,0,0,0],[0,1,0,0,0],[0.1,1,0,0,0],[0.25,0,0,0,0],[0.5,0,0,0,0],[0.5,1,0,0,0],[0.75,0,0,0,0],[0.75,1,0,0,0],[1,0,0,0,0],[1,0.25,0,0,0],[1,0.5,0,0,0],[1,0.75,0,0,0],[1,1,0,0,0]];" vertex="1" parent="YTZjs5NrMnTZmiXK4MOZ-1">
                    <mxGeometry x="180" y="1040" width="506" height="60" as="geometry"/>
                </mxCell>
                <mxCell id="ZPqvX_W6xCdv0GFhZESj-0" value="" style="rounded=1;whiteSpace=wrap;html=1;strokeColor=#373434;strokeWidth=2;fontColor=#191616;fillColor=#3399FF;arcSize=21;points=[[0,0,0,0,0],[0,0.25,0,0,0],[0,0.5,0,0,0],[0,0.75,0,0,0],[0,1,0,0,0],[0.05,0.95,0,0,0],[0.13,0.95,0,0,0],[0.25,0,0,0,0],[0.5,0,0,0,0],[0.75,0,0,0,0],[0.75,1,0,0,0],[1,0,0,0,0],[1,0.25,0,0,0],[1,0.5,0,0,0],[1,0.75,0,0,0],[1,1,0,0,0]];" vertex="1" parent="YTZjs5NrMnTZmiXK4MOZ-1">
                    <mxGeometry x="60" y="1100" width="340" height="60" as="geometry"/>
                </mxCell>
                <mxCell id="ph_Dupu86BIsFWpcMspV-0" value="" style="rounded=1;whiteSpace=wrap;html=1;strokeColor=#373434;strokeWidth=2;fontColor=#191616;fillColor=#99FF99;points=[[0,0,0,0,0],[0,0.25,0,0,0],[0,0.5,0,0,0],[0,0.75,0,0,0],[0,1,0,0,0],[0.07,0,0,0,0],[0.25,1,0,0,0],[0.26,0,0,0,-3],[0.5,1,0,0,0],[0.75,0,0,0,0],[0.75,1,0,0,0],[1,0,0,0,0],[1,0.25,0,0,0],[1,0.5,0,0,0],[1,0.75,0,0,0],[1,1,0,0,0]];" vertex="1" parent="YTZjs5NrMnTZmiXK4MOZ-1">
                    <mxGeometry x="398" y="1100" width="380" height="60" as="geometry"/>
                </mxCell>
                <mxCell id="ph_Dupu86BIsFWpcMspV-1" value="Alto Nivél de Abstração / Políticas" style="text;html=1;strokeColor=none;fillColor=none;align=center;verticalAlign=middle;whiteSpace=wrap;rounded=0;fontColor=#000000;" vertex="1" parent="YTZjs5NrMnTZmiXK4MOZ-1">
                    <mxGeometry x="236.5" y="990" width="210" height="30" as="geometry"/>
                </mxCell>
                <mxCell id="ph_Dupu86BIsFWpcMspV-2" value="Camada de Domínio" style="text;html=1;strokeColor=none;fillColor=none;align=center;verticalAlign=middle;whiteSpace=wrap;rounded=0;fontColor=#000000;fontStyle=1" vertex="1" parent="YTZjs5NrMnTZmiXK4MOZ-1">
                    <mxGeometry x="236.5" y="972.5" width="143" height="30" as="geometry"/>
                </mxCell>
                <mxCell id="ph_Dupu86BIsFWpcMspV-3" value="Camada de Aplicação" style="text;html=1;strokeColor=none;fillColor=none;align=center;verticalAlign=middle;whiteSpace=wrap;rounded=0;fontColor=#000000;fontStyle=1" vertex="1" parent="YTZjs5NrMnTZmiXK4MOZ-1">
                    <mxGeometry x="185" y="1035" width="130" height="30" as="geometry"/>
                </mxCell>
                <mxCell id="ph_Dupu86BIsFWpcMspV-4" value="Médio Nivel de Abstração / Orquestração" style="text;html=1;strokeColor=none;fillColor=none;align=center;verticalAlign=middle;whiteSpace=wrap;rounded=0;fontColor=#000000;" vertex="1" parent="YTZjs5NrMnTZmiXK4MOZ-1">
                    <mxGeometry x="80" y="1055" width="445" height="30" as="geometry"/>
                </mxCell>
                <mxCell id="ph_Dupu86BIsFWpcMspV-5" value="Baixo Nivel de Abstração / Detalhes" style="text;html=1;strokeColor=none;fillColor=none;align=center;verticalAlign=middle;whiteSpace=wrap;rounded=0;fontColor=#000000;" vertex="1" parent="YTZjs5NrMnTZmiXK4MOZ-1">
                    <mxGeometry x="68" y="1115" width="210" height="30" as="geometry"/>
                </mxCell>
                <mxCell id="ph_Dupu86BIsFWpcMspV-6" value="Camada de Apresentação" style="text;html=1;strokeColor=none;fillColor=none;align=center;verticalAlign=middle;whiteSpace=wrap;rounded=0;fontColor=#000000;fontStyle=1" vertex="1" parent="YTZjs5NrMnTZmiXK4MOZ-1">
                    <mxGeometry x="68" y="1098.5" width="160" height="30" as="geometry"/>
                </mxCell>
                <mxCell id="ph_Dupu86BIsFWpcMspV-9" value="Baixo Nível de Abstração / Detalhes" style="text;html=1;strokeColor=none;fillColor=none;align=center;verticalAlign=middle;whiteSpace=wrap;rounded=0;fontColor=#000000;" vertex="1" parent="YTZjs5NrMnTZmiXK4MOZ-1">
                    <mxGeometry x="400" y="1115" width="210" height="30" as="geometry"/>
                </mxCell>
                <mxCell id="ph_Dupu86BIsFWpcMspV-10" value="Camada de Infraestrutura" style="text;html=1;strokeColor=none;fillColor=none;align=center;verticalAlign=middle;whiteSpace=wrap;rounded=0;fontColor=#000000;fontStyle=1" vertex="1" parent="YTZjs5NrMnTZmiXK4MOZ-1">
                    <mxGeometry x="398" y="1098.5" width="160" height="30" as="geometry"/>
                </mxCell>
                <mxCell id="hI9YAfyuwiLMifBYgazO-0" value="" style="curved=1;endArrow=classic;html=1;strokeColor=#3333FF;strokeWidth=2;fontColor=#191616;entryX=0;entryY=0;entryDx=0;entryDy=310;entryPerimeter=0;" edge="1" parent="YTZjs5NrMnTZmiXK4MOZ-1">
                    <mxGeometry width="50" height="50" relative="1" as="geometry">
                        <mxPoint x="560" y="350" as="sourcePoint"/>
                        <mxPoint x="500" y="340" as="targetPoint"/>
                        <Array as="points">
                            <mxPoint x="570" y="540"/>
                            <mxPoint x="560" y="870"/>
                        </Array>
                    </mxGeometry>
                </mxCell>
            </root>
        </mxGraphModel>
    </diagram>
</mxfile>